<?xml version="1.0" standalone="no"?>
<!DOCTYPE svg PUBLIC "-//W3C//DTD SVG 20010904//EN"
 "http://www.w3.org/TR/2001/REC-SVG-20010904/DTD/svg10.dtd">
<svg version="1.0" xmlns="http://www.w3.org/2000/svg"
 width="33.000000pt" height="52.000000pt" viewBox="0 0 33.000000 52.000000"
 preserveAspectRatio="xMidYMid meet">

<g transform="translate(0.000000,52.000000) scale(0.100000,-0.100000)"
fill="#000000" stroke="none">
<path d="M202 504 c-43 -30 -21 -94 31 -94 40 0 57 15 57 51 0 52 -44 74 -88
43z m59 -4 c21 -12 25 -50 7 -68 -39 -39 -100 17 -63 58 21 23 29 24 56 10z"/>
<path d="M115 403 c-44 -22 -105 -84 -105 -105 0 -28 29 -21 72 18 22 19 42
33 44 31 3 -3 -1 -32 -9 -65 -10 -43 -11 -64 -4 -71 8 -8 7 -11 -4 -11 -17 0
-99 -140 -99 -169 0 -54 39 -26 98 70 38 61 39 67 24 83 -9 9 -11 16 -5 16 6
0 29 -20 52 -45 31 -34 41 -53 41 -78 0 -18 6 -42 14 -53 13 -17 16 -17 30 -4
12 12 14 29 9 82 -5 60 -10 70 -42 102 l-37 36 9 70 c9 62 8 73 -8 90 -22 24
-40 25 -80 3z m70 -13 c15 -17 16 -26 6 -86 l-12 -67 39 -41 c34 -35 40 -49
45 -97 6 -64 -4 -94 -22 -61 -6 11 -11 35 -11 53 0 27 -10 43 -56 86 l-56 52
14 65 c8 36 13 68 10 70 -7 8 -44 -14 -79 -47 -45 -42 -55 -25 -12 19 29 31
91 72 110 74 3 0 14 -9 24 -20z m-97 -298 c-24 -39 -49 -72 -55 -72 -21 0 -15
18 29 96 36 63 44 72 56 61 11 -12 7 -25 -30 -85z"/>
<path d="M220 312 c0 -6 -3 -17 -6 -26 -4 -11 5 -18 36 -26 23 -6 48 -9 56 -6
20 7 17 33 -3 44 -30 16 -83 24 -83 14z m84 -32 c16 -16 0 -22 -35 -12 -19 4
-35 16 -37 25 -3 14 2 15 29 7 18 -5 37 -14 43 -20z"/>
</g>
</svg>
